<svg fill="none" viewBox="0 0 32 30"><defs/><path fill="currentColor" d="M23.2 0H8.6C4 0 0 3.6 0 8.1V22C0 26.4 3.9 30 8.6 30h14.6c4.8 0 8.7-3.6 8.7-8.1V8C31.9 3.6 28 0 23.2 0zM16 23.2c-4.8 0-8.7-3.7-8.7-8.2 0-4.5 4-8.2 8.7-8.2 4.8 0 8.8 3.7 8.8 8.2 0 4.5-4 8.2-8.8 8.2zm9-14.5c-1.5 0-2.6-1-2.6-2.4C22.3 5 23.4 4 24.9 4c1.4 0 2.5 1 2.5 2.4 0 1.3-1.1 2.4-2.5 2.4z"/><path fill="currentColor" d="M16 8.6c-3.8 0-7 2.8-7 6.4 0 3.6 3.2 6.4 7 6.4 3.7 0 6.8-2.8 6.8-6.4 0-3.6-3-6.4-6.9-6.4zM24.9 5.6c-.4 0-.7.3-.7.7 0 .4.3.7.7.7.4 0 .7-.3.7-.7 0-.4-.3-.7-.7-.7z"/></svg>