<svg fill="none" viewBox="0 0 30 30"><defs/><path fill="currentColor" fill-rule="evenodd" d="M0 0v30h30V0H0zm22.5 16.6l2 2 .8 1c.2.6 0 1.2-.5 1.3h-3c-.8 0-1.4-.3-2-.8l-1.2-1.3-.5-.5c-.4-.3-.8-.2-1 .2-.3.5-.3 1-.3 1.4 0 .7-.3 1-1 1a7.8 7.8 0 01-7.2-3.7 36.7 36.7 0 01-3.9-6.8c-.2-.6 0-.9.5-.9h3c.4 0 .7.3.8.6.6 1.4 1.2 2.6 2 3.8l.8.8c.3.2.6.2.8-.2l.2-.8V11c-.2-.6-.5-1-1-1-.4-.1-.3-.2-.2-.4.3-.3.5-.5 1-.5H16c.5.1.6.4.7 1v3.7c0 .2.1.8.5 1 .3 0 .5-.2.7-.4a19.9 19.9 0 002.5-4.4c.2-.3.4-.5.8-.5H24.8c.5.1.7.4.5 1-.3.8-.8 1.5-1.3 2.2l-1.7 2.2c-.5.7-.4 1 .2 1.7z" clip-rule="evenodd"/></svg>