<svg xmlns="http://www.w3.org/2000/svg" xmlns:xlink="http://www.w3.org/1999/xlink"><symbol id="icon-arr-left" viewBox="0 0 75 75"><path stroke="#FF7E07" d="M37.785 1L1.001 37.784 37.785 74.57"/></symbol><symbol id="icon-arr-more" viewBox="0 0 25 8"><path fill="currentColor" d="M24.354 4.354a.5.5 0 000-.708L21.172.464a.5.5 0 10-.707.708L23.293 4l-2.828 2.828a.5.5 0 10.707.708l3.182-3.182zM0 4.5h24v-1H0v1z"/></symbol><symbol id="icon-arr-right" viewBox="0 0 75 75"><path stroke="#FF7E07" d="M36.785 1L73.57 37.784 36.785 74.57"/></symbol><symbol id="icon-close" viewBox="0 0 311 311.077"><path d="M16.035 311.078c-4.097 0-8.195-1.558-11.308-4.695-6.25-6.25-6.25-16.383 0-22.633L283.789 4.687c6.25-6.25 16.383-6.25 22.633 0s6.25 16.383 0 22.637L27.363 306.383a16.045 16.045 0 01-11.328 4.695zm0 0"/><path d="M295.117 311.078a15.879 15.879 0 01-11.308-4.695L4.727 27.324c-6.25-6.254-6.25-16.386 0-22.636s16.382-6.25 22.636 0L306.422 283.75c6.25 6.25 6.25 16.383 0 22.633-3.137 3.117-7.23 4.695-11.305 4.695zm0 0"/></symbol><symbol id="icon-download" viewBox="0 0 25 25"><path d="M18.68 11.395a.78.78 0 00-.711-.457h-3.125V.78a.782.782 0 00-.781-.78h-3.125a.782.782 0 00-.782.781v10.156H7.031a.782.782 0 00-.587 1.296l5.469 6.25a.779.779 0 001.175 0l5.468-6.25a.779.779 0 00.124-.838z"/><path d="M21.094 17.188v4.687H3.906v-4.688H.781v6.25c0 .865.7 1.563 1.563 1.563h20.312c.864 0 1.563-.698 1.563-1.563v-6.25h-3.125z"/></symbol><symbol id="icon-fb" viewBox="0 0 30 30"><path fill="currentColor" d="M25.6 0H4.4C2 0 0 2 0 4.4v21.2C0 28 2 30 4.4 30h8.8V19.4H9.7V14h3.5v-3.6c0-2.9 2.4-5.2 5.3-5.2h5.3v5.2h-5.3V14h5.3l-.8 5.3h-4.5V30h7.1c2.4 0 4.4-2 4.4-4.4V4.4C30 2 28 0 25.6 0z"/></symbol><symbol id="icon-inst" viewBox="0 0 32 30"><path fill="currentColor" d="M23.2 0H8.6C4 0 0 3.6 0 8.1V22c0 4.4 3.9 8 8.6 8h14.6c4.8 0 8.7-3.6 8.7-8.1V8c0-4.4-3.9-8-8.7-8zM16 23.2c-4.8 0-8.7-3.7-8.7-8.2 0-4.5 4-8.2 8.7-8.2 4.8 0 8.8 3.7 8.8 8.2 0 4.5-4 8.2-8.8 8.2zm9-14.5c-1.5 0-2.6-1-2.6-2.4-.1-1.3 1-2.3 2.5-2.3 1.4 0 2.5 1 2.5 2.4 0 1.3-1.1 2.4-2.5 2.4z"/><path fill="currentColor" d="M16 8.6c-3.8 0-7 2.8-7 6.4 0 3.6 3.2 6.4 7 6.4 3.7 0 6.8-2.8 6.8-6.4 0-3.6-3-6.4-6.9-6.4zm8.9-3c-.4 0-.7.3-.7.7 0 .4.3.7.7.7.4 0 .7-.3.7-.7 0-.4-.3-.7-.7-.7z"/></symbol><symbol id="icon-menu" viewBox="0 -53 384 384"><path d="M368 155H16a16 16 0 010-32h352a16 16 0 010 32zm0-123H16a16 16 0 010-32h352a16 16 0 010 32zm0 245H16a16 16 0 010-32h352a16 16 0 010 32zm0 0"/></symbol><symbol id="icon-ruble" viewBox="0 0 384 512"><path fill="currentColor" d="M239 320c85 0 145-59 145-145S324 32 239 32H76c-7 0-12 5-12 12v207H12c-7 0-12 5-12 12v45c0 7 5 12 12 12h52v32H12c-7 0-12 5-12 12v40c0 7 5 12 12 12h52v52c0 7 5 12 12 12h59c6 0 12-5 12-12v-52h161c7 0 12-5 12-12v-40c0-7-5-12-12-12H147v-32h92zm-92-219h78c47 0 75 29 75 74 0 46-28 76-76 76h-77V101z"/></symbol><symbol id="icon-up-arrow" viewBox="0 0 346 346"><path d="M205 59c-5-22-16-40-29-57-3-3-9-2-12 1-11 20-20 41-22 64-1 7 9 7 11 1 4-16 10-32 18-47l9 14c-5-5-15-3-15 5 0 100-23 203-5 301 1 8 15 6 14-2-8-100 7-198 8-299v-1c4 7 6 15 8 23 1 10 16 6 15-3z"/></symbol><symbol id="icon-vk" viewBox="0 0 30 30"><path fill="currentColor" fill-rule="evenodd" d="M0 0v30h30V0H0zm22.5 16.6l2 2 .8 1c.2.6 0 1.2-.5 1.3h-3c-.8 0-1.4-.3-2-.8l-1.2-1.3-.5-.5c-.4-.3-.8-.2-1 .2-.3.5-.3 1-.3 1.4 0 .7-.3 1-1 1a7.8 7.8 0 01-7.2-3.7 36.7 36.7 0 01-3.9-6.8c-.2-.6 0-.9.5-.9h3c.4 0 .7.3.8.6.6 1.4 1.2 2.6 2 3.8l.8.8c.3.2.6.2.8-.2l.2-.8V11c-.2-.6-.5-1-1-1-.4-.1-.3-.2-.2-.4.3-.3.5-.5 1-.5H16c.5.1.6.4.7 1v3.7c0 .2.1.8.5 1 .3 0 .5-.2.7-.4a19.9 19.9 0 002.5-4.4c.2-.3.4-.5.8-.5h3.6c.5.1.7.4.5 1-.3.8-.8 1.5-1.3 2.2l-1.7 2.2c-.5.7-.4 1 .2 1.7z" clip-rule="evenodd"/></symbol></svg>